<?xml version="1.0" encoding="utf-8"?>
<!-- Generator: Adobe Illustrator 25.2.1, SVG Export Plug-In . SVG Version: 6.00 Build 0)  -->
<svg version="1.1" id="Layer_1" xmlns="http://www.w3.org/2000/svg" xmlns:xlink="http://www.w3.org/1999/xlink" x="0px" y="0px"
	 viewBox="0 0 500 500" style="enable-background:new 0 0 500 500;" xml:space="preserve">
<style type="text/css">
	.st0{fill:none;stroke:#000000;stroke-width:2;stroke-miterlimit:10;}
	.st1{fill:#C65333;}
	.st2{fill:none;stroke:#B0462B;stroke-width:9;stroke-miterlimit:10;}
	.st3{fill:none;stroke:#DDDDDD;stroke-width:7;stroke-miterlimit:10;}
	.st4{fill:#E2E0E0;stroke:#F0EFEF;stroke-width:4;stroke-miterlimit:10;}
	.st5{fill:none;stroke:#F0EFEF;stroke-width:7;stroke-miterlimit:10;}
	.st6{fill:none;stroke:#DDDDDD;stroke-width:6;stroke-miterlimit:10;}
	.st7{fill:none;stroke:#F0EFEF;stroke-width:2;stroke-miterlimit:10;}
	.st8{fill:#F0EFEF;stroke:#D3D3D3;stroke-width:4;stroke-miterlimit:10;}
</style>
<path class="st1" d="M427.02,428.08H72.98l0.03-99.25c0-95.86,40.38-187.78,112.27-255.56l21.57-20.33
	c24.09-22.72,63.02-23.1,87.62-0.87l14.65,13.25c75.44,68.21,118.07,162.52,118.01,261.07L427.02,428.08z"/>
<line class="st2" x1="417.74" y1="246.99" x2="83.06" y2="246.99"/>
<line class="st2" x1="414.79" y1="234.85" x2="86.34" y2="234.85"/>
<line class="st2" x1="411.18" y1="223.2" x2="89.79" y2="223.2"/>
<line class="st2" x1="407.24" y1="211.55" x2="93.89" y2="211.55"/>
<line class="st2" x1="156.05" y1="199.91" x2="98.48" y2="199.91"/>
<line class="st2" x1="210.43" y1="199.91" x2="184.59" y2="199.91"/>
<line class="st2" x1="315.53" y1="199.91" x2="292.34" y2="199.91"/>
<line class="st2" x1="402.97" y1="199.91" x2="344.08" y2="199.91"/>
<line class="st2" x1="156.05" y1="188.26" x2="103.41" y2="188.26"/>
<line class="st2" x1="210.43" y1="188.26" x2="184.59" y2="188.26"/>
<line class="st2" x1="315.53" y1="188.26" x2="292.34" y2="188.26"/>
<line class="st2" x1="398.05" y1="188.26" x2="344.08" y2="188.26"/>
<line class="st2" x1="156.05" y1="176.45" x2="108.82" y2="176.45"/>
<line class="st2" x1="210.43" y1="176.45" x2="184.59" y2="176.45"/>
<line class="st2" x1="315.53" y1="176.45" x2="292.34" y2="176.45"/>
<line class="st2" x1="392.64" y1="176.45" x2="344.08" y2="176.45"/>
<line class="st2" x1="210.43" y1="164.8" x2="114.89" y2="164.8"/>
<line class="st2" x1="386.73" y1="164.8" x2="292.34" y2="164.8"/>
<line class="st2" x1="210.43" y1="153.15" x2="121.45" y2="153.15"/>
<line class="st2" x1="380.33" y1="153.15" x2="292.34" y2="153.15"/>
<line class="st2" x1="210.43" y1="141.5" x2="128.51" y2="141.5"/>
<line class="st2" x1="373.12" y1="141.5" x2="292.34" y2="141.5"/>
<line class="st2" x1="210.43" y1="129.85" x2="136.38" y2="129.85"/>
<line class="st2" x1="365.57" y1="129.85" x2="292.34" y2="129.85"/>
<line class="st2" x1="210.43" y1="118.04" x2="145.08" y2="118.04"/>
<line class="st2" x1="357.2" y1="118.04" x2="292.34" y2="118.04"/>
<line class="st2" x1="348.18" y1="106.39" x2="154.43" y2="106.39"/>
<line class="st2" x1="338.17" y1="94.75" x2="164.44" y2="94.75"/>
<line class="st2" x1="327.51" y1="83.1" x2="175.26" y2="83.1"/>
<line class="st2" x1="315.53" y1="71.45" x2="187.24" y2="71.45"/>
<line class="st2" x1="303.06" y1="59.8" x2="199.54" y2="59.8"/>
<line class="st2" x1="289.61" y1="47.99" x2="212.83" y2="47.99"/>
<line class="st2" x1="209.06" y1="423.68" x2="73.06" y2="423.68"/>
<line class="st2" x1="427.09" y1="423.68" x2="291.09" y2="423.68"/>
<line class="st2" x1="209.06" y1="412.03" x2="73.06" y2="412.03"/>
<line class="st2" x1="427.09" y1="412.03" x2="291.09" y2="412.03"/>
<line class="st2" x1="209.06" y1="400.38" x2="73.06" y2="400.38"/>
<line class="st2" x1="427.09" y1="400.38" x2="291.09" y2="400.38"/>
<line class="st2" x1="209.06" y1="388.74" x2="73.06" y2="388.74"/>
<line class="st2" x1="427.09" y1="388.74" x2="291.09" y2="388.74"/>
<polyline class="st2" points="427.09,376.92 291.09,376.92 209.06,376.92 73.06,376.92 "/>
<line class="st2" x1="427.09" y1="365.28" x2="73.06" y2="365.28"/>
<line class="st2" x1="427.09" y1="353.63" x2="73.06" y2="353.63"/>
<line class="st2" x1="230.9" y1="341.98" x2="73.06" y2="341.98"/>
<line class="st2" x1="427.09" y1="341.98" x2="269.25" y2="341.98"/>
<line class="st2" x1="230.9" y1="330.33" x2="73.06" y2="330.33"/>
<line class="st2" x1="427.09" y1="330.33" x2="269.25" y2="330.33"/>
<line class="st2" x1="230.9" y1="318.52" x2="73.38" y2="318.52"/>
<line class="st2" x1="426.93" y1="318.52" x2="269.25" y2="318.52"/>
<line class="st2" x1="230.9" y1="306.87" x2="73.88" y2="306.87"/>
<line class="st2" x1="426.6" y1="306.87" x2="269.25" y2="306.87"/>
<line class="st2" x1="425.61" y1="295.22" x2="74.7" y2="295.22"/>
<line class="st2" x1="424.3" y1="283.57" x2="76.17" y2="283.57"/>
<line class="st2" x1="422.83" y1="271.93" x2="77.81" y2="271.93"/>
<rect x="229.53" y="298.83" transform="matrix(-1.836970e-16 1 -1 -1.836970e-16 566.0772 65.9307)" class="st3" width="41.08" height="34.35"/>
<line class="st2" x1="420.53" y1="260.28" x2="79.95" y2="260.28"/>
<rect x="209.05" y="348.43" class="st4" width="81.9" height="78.03"/>
<rect x="230.9" y="293.46" class="st5" width="38.35" height="45.08"/>
<rect x="153.87" y="175.53" transform="matrix(-1.836970e-16 1 -1 -1.836970e-16 359.1272 18.4866)" class="st3" width="32.9" height="26.55"/>
<rect x="155.87" y="177.53" transform="matrix(-1.836970e-16 1 -1 -1.836970e-16 359.1272 18.4866)" class="st3" width="28.9" height="22.55"/>
<rect x="156.05" y="171.36" class="st5" width="28.55" height="34.89"/>
<rect x="315.36" y="177.53" transform="matrix(-1.836970e-16 1 -1 -1.836970e-16 518.6122 -140.9985)" class="st3" width="28.9" height="22.55"/>
<rect x="315.53" y="171.36" class="st5" width="28.55" height="34.89"/>
<rect x="205.25" y="120.02" transform="matrix(-1.836970e-16 1 -1 -1.836970e-16 410.3591 -92.4119)" class="st3" width="92.27" height="77.9"/>
<g>
	<polyline class="st5" points="247.82,128.07 214.43,174.73 288.34,174.73 256.34,128.07 	"/>
	<line class="st5" x1="210.43" y1="125.4" x2="292.34" y2="125.4"/>
	<line class="st5" x1="251.39" y1="110.84" x2="251.39" y2="207.11"/>
	<line class="st5" x1="273.67" y1="174.73" x2="273.67" y2="207.11"/>
	<line class="st5" x1="231" y1="174.73" x2="231" y2="207.11"/>
</g>
<g>
	<polygon class="st6" points="291.05,176.73 288.25,176.73 214.35,176.73 211.46,176.73 212.73,173.57 246.11,126.9 249.36,129.23 
		218.24,172.73 284.46,172.73 254.61,129.2 257.9,126.93 289.9,173.6 	"/>
	<rect x="210.35" y="123.4" class="st6" width="81.9" height="4"/>
	<rect x="249.3" y="110.84" class="st6" width="4" height="96.27"/>
	<rect x="271.59" y="174.73" class="st6" width="4" height="32.38"/>
	<rect x="228.92" y="174.73" class="st6" width="4" height="32.38"/>
	<polyline class="st5" points="247.73,128.07 214.35,174.73 288.25,174.73 256.26,128.07 	"/>
	<line class="st5" x1="210.35" y1="125.4" x2="292.25" y2="125.4"/>
	<line class="st5" x1="251.3" y1="110.84" x2="251.3" y2="207.11"/>
	<line class="st5" x1="273.59" y1="174.73" x2="273.59" y2="207.11"/>
	<line class="st5" x1="230.92" y1="174.73" x2="230.92" y2="207.11"/>
</g>
<rect x="210.43" y="110.84" class="st5" width="81.9" height="96.27"/>
<g>
	<rect x="216.82" y="355.21" class="st7" width="13.96" height="13.96"/>
	<rect x="234.59" y="355.21" class="st7" width="13.96" height="13.96"/>
	<rect x="252.37" y="355.21" class="st7" width="13.96" height="13.96"/>
	<rect x="270.14" y="355.21" class="st7" width="13.96" height="13.96"/>
	<rect x="216.82" y="372.2" class="st7" width="13.96" height="13.96"/>
	<rect x="234.59" y="372.2" class="st7" width="13.96" height="13.96"/>
	<rect x="252.37" y="372.2" class="st7" width="13.96" height="13.96"/>
	<rect x="270.14" y="372.2" class="st7" width="13.96" height="13.96"/>
	<rect x="216.82" y="389.19" class="st7" width="13.96" height="13.96"/>
	<rect x="234.59" y="389.19" class="st7" width="13.96" height="13.96"/>
	<rect x="252.37" y="389.19" class="st7" width="13.96" height="13.96"/>
	<rect x="270.14" y="389.19" class="st7" width="13.96" height="13.96"/>
	<rect x="216.82" y="406.18" class="st7" width="13.96" height="13.96"/>
	<rect x="234.59" y="406.18" class="st7" width="13.96" height="13.96"/>
	<rect x="252.37" y="406.18" class="st7" width="13.96" height="13.96"/>
	<rect x="270.14" y="406.18" class="st7" width="13.96" height="13.96"/>
</g>
<polygon class="st8" points="197.34,61.9 251.39,83.1 304.64,64.13 294.47,52.07 255.22,42.06 202.82,55.65 "/>
<path class="st8" d="M408.52,309.33l0.96-55.06c0.04-2.31-0.3-4.6-0.99-6.8c-7.87-24.83-59.44-177.85-140.04-195.05
	c-0.65-0.17-1.31-0.33-2.13-0.33c-2.46-0.66-5.08-0.98-7.71-1.15c-1.8-0.16-3.77-0.33-5.74-0.33c-0.5,0-0.99,0.01-1.48,0.03
	c-0.49-0.02-0.98-0.03-1.48-0.03c-1.97,0-3.94,0.17-5.74,0.33c-2.63,0.17-5.25,0.49-7.71,1.15c-0.82,0-1.48,0.16-2.13,0.33
	c-80.6,17.2-132.16,170.22-140.04,195.05c-0.7,2.2-1.03,4.5-0.99,6.8l0.96,55.06H56.65c0,0,59.72-243.46,172.26-272.99
	c7.22-1.97,14.77-2.95,22.48-2.95c7.71,0,15.26,0.98,22.48,2.95c112.54,29.53,172.26,272.99,172.26,272.99H408.52z"/>
</svg>
